<svg width="60" height="61" viewBox="0 0 60 61" fill="none" xmlns="http://www.w3.org/2000/svg">
<path opacity="0.4" d="M30 42.75V48.7C30 53.375 28.125 55.25 23.425 55.25H11.55C6.875 55.25 5 53.375 5 48.7V36.825C5 32.125 6.875 30.25 11.55 30.25H17.5V36.175C17.5 40.875 19.375 42.75 24.05 42.75H30Z" fill="#F2C938"/>
<path opacity="0.6" d="M42.5 30.25V36.175C42.5 40.875 40.625 42.75 35.925 42.75H24.05C19.375 42.75 17.5 40.875 17.5 36.175V24.3C17.5 19.625 19.375 17.75 24.05 17.75H30V23.675C30 28.375 31.875 30.25 36.55 30.25H42.5Z" fill="#F2C938"/>
<path d="M55 11.8V23.675C55 28.375 53.125 30.25 48.425 30.25H36.55C31.875 30.25 30 28.375 30 23.675V11.8C30 7.125 31.875 5.25 36.55 5.25H48.425C53.125 5.25 55 7.125 55 11.8Z" fill="#F2C938"/>
</svg>
