<svg width="17" height="18" viewBox="0 0 17 18" fill="none" xmlns="http://www.w3.org/2000/svg">
<path fill-rule="evenodd" clip-rule="evenodd" d="M4.85837 1.03111C5.74107 0.990475 6.02251 0.981445 8.271 0.981445C10.5195 0.981445 10.8009 0.991228 11.6829 1.03111C12.5648 1.07099 13.1668 1.21171 13.6936 1.41564C14.2452 1.62409 14.7456 1.94992 15.1595 2.37133C15.5809 2.78446 15.906 3.28412 16.1136 3.83646C16.3183 4.36322 16.4583 4.96522 16.4989 5.84566C16.5396 6.72986 16.5486 7.01129 16.5486 9.25904C16.5486 11.5075 16.5388 11.789 16.4989 12.6717C16.459 13.5521 16.3183 14.1541 16.1136 14.6809C15.9059 15.2333 15.5803 15.7338 15.1595 16.1475C14.7456 16.5689 14.2452 16.894 13.6936 17.1017C13.1668 17.3064 12.5648 17.4463 11.6844 17.487C10.8009 17.5276 10.5195 17.5366 8.271 17.5366C6.02251 17.5366 5.74107 17.5268 4.85837 17.487C3.97794 17.4471 3.37593 17.3064 2.84918 17.1017C2.29678 16.894 1.79628 16.5683 1.38254 16.1475C0.96142 15.7341 0.635535 15.2339 0.427606 14.6816C0.223676 14.1549 0.0837092 13.5528 0.0430737 12.6724C0.00243829 11.7882 -0.0065918 11.5068 -0.0065918 9.25904C-0.0065918 7.01054 0.0031908 6.7291 0.0430737 5.84716C0.0829567 4.96522 0.223676 4.36322 0.427606 3.83646C0.635842 3.28418 0.961976 2.78394 1.38329 2.37058C1.79645 1.94955 2.29644 1.62367 2.84842 1.41564C3.37518 1.21171 3.97719 1.07175 4.85762 1.03111H4.85837ZM11.6159 2.52108C10.743 2.48119 10.4811 2.47292 8.271 2.47292C6.06088 2.47292 5.79901 2.48119 4.9261 2.52108C4.11866 2.55795 3.6807 2.69265 3.38873 2.80628C3.00269 2.95678 2.72652 3.13512 2.4368 3.42484C2.16217 3.69202 1.95082 4.01728 1.81824 4.37676C1.70461 4.66874 1.56991 5.1067 1.53304 5.91414C1.49316 6.78705 1.48488 7.04892 1.48488 9.25904C1.48488 11.4692 1.49316 11.731 1.53304 12.6039C1.56991 13.4114 1.70461 13.8493 1.81824 14.1413C1.95068 14.5003 2.16214 14.8261 2.4368 15.0932C2.70394 15.3679 3.02978 15.5794 3.38873 15.7118C3.6807 15.8254 4.11866 15.9601 4.9261 15.997C5.79901 16.0369 6.06013 16.0452 8.271 16.0452C10.4819 16.0452 10.743 16.0369 11.6159 15.997C12.4233 15.9601 12.8613 15.8254 13.1533 15.7118C13.5393 15.5613 13.8155 15.3829 14.1052 15.0932C14.3799 14.8261 14.5913 14.5003 14.7238 14.1413C14.8374 13.8493 14.9721 13.4114 15.009 12.6039C15.0488 11.731 15.0571 11.4692 15.0571 9.25904C15.0571 7.04892 15.0488 6.78705 15.009 5.91414C14.9721 5.1067 14.8374 4.66874 14.7238 4.37676C14.5733 3.99073 14.3949 3.71456 14.1052 3.42484C13.838 3.15023 13.5127 2.93888 13.1533 2.80628C12.8613 2.69265 12.4233 2.55795 11.6159 2.52108ZM7.21373 11.8108C7.80419 12.0566 8.46167 12.0898 9.07387 11.9046C9.68608 11.7195 10.215 11.3276 10.5704 10.7958C10.9257 10.2641 11.0854 9.62541 11.0222 8.98897C10.959 8.35252 10.6768 7.75776 10.2238 7.30628C9.93497 7.01767 9.58579 6.79669 9.20135 6.65923C8.81691 6.52177 8.40677 6.47126 8.00047 6.51134C7.59417 6.55141 7.2018 6.68108 6.85162 6.89099C6.50144 7.10091 6.20216 7.38585 5.97532 7.72531C5.74849 8.06477 5.59974 8.45031 5.53978 8.85416C5.47983 9.25801 5.51016 9.67013 5.6286 10.0608C5.74703 10.4516 5.95063 10.8112 6.22472 11.1138C6.49881 11.4164 6.83659 11.6544 7.21373 11.8108ZM5.26247 6.25051C5.65756 5.85542 6.12659 5.54202 6.6428 5.32821C7.159 5.11439 7.71226 5.00434 8.271 5.00434C8.82974 5.00434 9.383 5.11439 9.8992 5.32821C10.4154 5.54202 10.8844 5.85542 11.2795 6.25051C11.6746 6.64559 11.988 7.11463 12.2018 7.63083C12.4157 8.14704 12.5257 8.7003 12.5257 9.25904C12.5257 9.81777 12.4157 10.371 12.2018 10.8872C11.988 11.4034 11.6746 11.8725 11.2795 12.2676C10.4816 13.0655 9.39942 13.5137 8.271 13.5137C7.14258 13.5137 6.06038 13.0655 5.26247 12.2676C4.46456 11.4697 4.0163 10.3875 4.0163 9.25904C4.0163 8.13062 4.46456 7.04842 5.26247 6.25051ZM13.4693 5.63797C13.5672 5.54561 13.6456 5.43455 13.6998 5.31136C13.754 5.18817 13.783 5.05535 13.7849 4.92077C13.7869 4.7862 13.7618 4.65259 13.7112 4.52787C13.6606 4.40316 13.5855 4.28986 13.4904 4.19469C13.3952 4.09951 13.2819 4.02441 13.1572 3.97381C13.0325 3.92321 12.8989 3.89815 12.7643 3.90011C12.6297 3.90207 12.4969 3.93102 12.3737 3.98523C12.2505 4.03944 12.1394 4.11782 12.0471 4.21573C11.8675 4.40613 11.7691 4.65904 11.7729 4.92077C11.7768 5.1825 11.8824 5.43244 12.0675 5.61753C12.2526 5.80262 12.5026 5.90829 12.7643 5.91211C13.026 5.91592 13.2789 5.81758 13.4693 5.63797Z" fill="white"/>
</svg>
