<svg width="20" height="21" viewBox="0 0 20 21" fill="none" xmlns="http://www.w3.org/2000/svg">
<path d="M11.3479 6.08585C13.669 6.08585 14.659 7.07585 14.659 9.39688H16.8663C16.8663 5.83752 14.9073 3.87849 11.3479 3.87849V6.08585ZM15.1247 12.0932C14.9126 11.9004 14.634 11.7976 14.3475 11.8065C14.0611 11.8153 13.7893 11.9351 13.5895 12.1406L10.9484 14.8568C10.3127 14.7354 9.03461 14.337 7.71903 13.0247C6.40344 11.708 6.00501 10.4266 5.88692 9.79531L8.60087 7.1531C8.8066 6.95348 8.9266 6.68164 8.93546 6.3951C8.94432 6.10857 8.84134 5.82984 8.64832 5.61789L4.57023 1.13364C4.37713 0.921023 4.10876 0.792056 3.8221 0.774127C3.53545 0.756198 3.2531 0.850721 3.03501 1.03762L0.640029 3.09157C0.449215 3.28307 0.335325 3.53795 0.319962 3.80785C0.303407 4.08377 -0.0122451 10.6198 5.05585 15.6901C9.47719 20.1103 15.0154 20.4337 16.5407 20.4337C16.7637 20.4337 16.9005 20.4271 16.937 20.4248C17.2068 20.4097 17.4616 20.2953 17.6521 20.1037L19.705 17.7076C19.892 17.4896 19.9867 17.2074 19.969 16.9207C19.9513 16.6341 19.8225 16.3656 19.6101 16.1724L15.1247 12.0932Z" fill="white"/>
</svg>
