<svg width="23" height="23" viewBox="0 0 23 23" fill="none" xmlns="http://www.w3.org/2000/svg">
<path d="M19.1666 10.5408H21.0833C21.0833 5.62452 17.3717 1.91673 12.4487 1.91673V3.83339C16.3415 3.83339 19.1666 6.65377 19.1666 10.5408Z" fill="#F2C938"/>
<path d="M12.4584 7.66715C14.4737 7.66715 15.3334 8.52677 15.3334 10.5421H17.25C17.25 7.45152 15.549 5.75048 12.4584 5.75048V7.66715ZM15.7378 12.8834C15.5536 12.716 15.3116 12.6267 15.0629 12.6344C14.8142 12.6421 14.5782 12.7461 14.4047 12.9246L12.1114 15.283C11.5594 15.1776 10.4497 14.8316 9.30736 13.6922C8.16503 12.5489 7.81907 11.4363 7.71653 10.8881L10.0731 8.59385C10.2517 8.42052 10.3559 8.18447 10.3636 7.93568C10.3713 7.68688 10.2819 7.44485 10.1143 7.26081L6.57324 3.3671C6.40557 3.18249 6.17254 3.0705 5.92363 3.05494C5.67473 3.03937 5.42956 3.12144 5.24019 3.28373L3.16061 5.06719C2.99492 5.23347 2.89603 5.45479 2.88269 5.68915C2.86832 5.92873 2.59423 11.604 6.9949 16.0066C10.834 19.8447 15.6429 20.1255 16.9673 20.1255C17.1609 20.1255 17.2797 20.1197 17.3114 20.1178C17.5457 20.1047 17.7669 20.0054 17.9324 19.8389L19.7149 17.7584C19.8773 17.5692 19.9595 17.3241 19.9441 17.0752C19.9287 16.8263 19.8169 16.5932 19.6324 16.4254L15.7378 12.8834Z" fill="#F2C938"/>
</svg>
