<svg width="60" height="61" viewBox="0 0 60 61" fill="none" xmlns="http://www.w3.org/2000/svg">
<path opacity="0.4" d="M45.82 14.425L16.47 43.775C15.37 44.875 13.52 44.725 12.62 43.425C9.52001 38.9 7.69501 33.55 7.69501 28.05V17.075C7.69501 15.025 9.24501 12.7 11.145 11.925L25.07 6.22503C26.6234 5.58132 28.2885 5.25 29.97 5.25C31.6515 5.25 33.3166 5.58132 34.87 6.22503L44.97 10.35C46.645 11.025 47.07 13.175 45.82 14.425Z" fill="#F2C938"/>
<path d="M48.175 17.8549C49.8 16.4799 52.275 17.6549 52.275 19.7799V28.0549C52.275 40.2799 43.4 51.7299 31.275 55.0799C30.45 55.3049 29.55 55.3049 28.7 55.0799C25.1907 54.0943 21.9053 52.4389 19.025 50.2049C17.825 49.2799 17.7 47.5299 18.75 46.4549C24.2 40.8799 40.15 24.6299 48.175 17.8549Z" fill="#F2C938"/>
</svg>
