<svg width="60" height="61" viewBox="0 0 60 61" fill="none" xmlns="http://www.w3.org/2000/svg">
<path opacity="0.4" d="M14.35 40.25C14.625 39.025 14.125 37.275 13.25 36.4L7.17501 30.325C5.27501 28.425 4.52501 26.4 5.07501 24.65C5.65001 22.9 7.42501 21.7 10.075 21.25L17.875 19.95C19 19.75 20.375 18.75 20.9 17.725L25.2 9.1C26.45 6.625 28.15 5.25 30 5.25C31.85 5.25 33.55 6.625 34.8 9.1L39.1 17.725C39.425 18.375 40.1 19 40.825 19.425L13.9 46.35C13.55 46.7 12.95 46.375 13.05 45.875L14.35 40.25Z" fill="#F2C938"/>
<path d="M46.75 36.405C45.85 37.305 45.35 39.03 45.65 40.255L47.375 47.78C48.1 50.905 47.65 53.255 46.1 54.38C45.4416 54.8402 44.6529 55.0768 43.85 55.055C42.575 55.055 41.075 54.58 39.425 53.605L32.1 49.255C30.95 48.58 29.05 48.58 27.9 49.255L20.575 53.605C17.8 55.23 15.425 55.505 13.9 54.38C13.325 53.955 12.9 53.38 12.625 52.63L43.025 22.23C44.175 21.08 45.8 20.555 47.375 20.83L49.9 21.255C52.55 21.705 54.325 22.905 54.9 24.655C55.45 26.405 54.7 28.43 52.8 30.33L46.75 36.405Z" fill="#F2C938"/>
</svg>
