<svg width="19" height="24" viewBox="0 0 19 24" fill="none" xmlns="http://www.w3.org/2000/svg">
<path d="M9.24415 0.399414C6.83014 0.402262 4.51581 1.36249 2.80884 3.06946C1.10188 4.77642 0.141652 7.09075 0.138804 9.50477C0.135912 11.4775 0.780301 13.3967 1.97312 14.968C1.97312 14.968 2.22145 15.2949 2.26201 15.3421L9.24415 23.5767L16.2296 15.338C16.266 15.2941 16.5152 14.968 16.5152 14.968L16.516 14.9655C17.7082 13.3949 18.3523 11.4766 18.3495 9.50477C18.3467 7.09075 17.3864 4.77642 15.6795 3.06946C13.9725 1.36249 11.6582 0.402262 9.24415 0.399414ZM9.24415 12.8158C8.58929 12.8158 7.94914 12.6216 7.40464 12.2578C6.86014 11.894 6.43576 11.3769 6.18516 10.7718C5.93455 10.1668 5.86898 9.50109 5.99674 8.85881C6.1245 8.21654 6.43984 7.62657 6.9029 7.16351C7.36595 6.70045 7.95592 6.38511 8.5982 6.25735C9.24048 6.12959 9.90622 6.19516 10.5112 6.44577C11.1162 6.69637 11.6334 7.12076 11.9972 7.66525C12.361 8.20975 12.5552 8.8499 12.5552 9.50477C12.5541 10.3826 12.2049 11.2241 11.5842 11.8448C10.9635 12.4655 10.122 12.8147 9.24415 12.8158Z" fill="white"/>
</svg>
